<svg width="220" height="48" viewBox="0 0 220 48" fill="none" xmlns="http://www.w3.org/2000/svg" role="img" aria-labelledby="title desc">
  <title id="title">Noicebard OBFlow Logo</title>
  <desc id="desc">Minimal logo mark for Noicebard OBFlow, combining a broadcast waveform, routing flow and the letters NB.</desc>
  <defs>
    <linearGradient id="g" x1="8" y1="8" x2="44" y2="40" gradientUnits="userSpaceOnUse">
      <stop stop-color="#38BDF8"/>
      <stop offset="1" stop-color="#6366F1"/>
    </linearGradient>
  </defs>
  <rect x="4" y="4" width="40" height="40" rx="12" fill="#0F172A"/>
  <path d="M14 30V18L24 30V18" stroke="url(#g)" stroke-width="3.2" stroke-linecap="round" stroke-linejoin="round"/>
  <path d="M29 18H35.2C38.4 18 40.5 20 40.5 22.7C40.5 24.4 39.6 25.8 38 26.5C40 27.1 41.2 28.7 41.2 30.7C41.2 33.8 38.8 36 35.1 36H29V18Z" stroke="url(#g)" stroke-width="3.2" stroke-linejoin="round"/>
  <path d="M8 24H12" stroke="#E2E8F0" stroke-width="2" stroke-linecap="round" opacity=".8"/>
  <path d="M44 24H50C54 24 54 14 60 14H66" stroke="#38BDF8" stroke-width="2.4" stroke-linecap="round" opacity=".85"/>
  <path d="M44 24H50C54 24 54 34 60 34H66" stroke="#6366F1" stroke-width="2.4" stroke-linecap="round" opacity=".85"/>
  <circle cx="66" cy="14" r="3" fill="#38BDF8"/>
  <circle cx="66" cy="34" r="3" fill="#6366F1"/>
  <text x="78" y="23" fill="#0F172A" font-family="Inter, ui-sans-serif, system-ui, -apple-system, BlinkMacSystemFont, 'Segoe UI', sans-serif" font-size="16" font-weight="800" letter-spacing=".08em">NOICEBARD</text>
  <text x="78" y="38" fill="#475569" font-family="Inter, ui-sans-serif, system-ui, -apple-system, BlinkMacSystemFont, 'Segoe UI', sans-serif" font-size="12" font-weight="700" letter-spacing=".18em">OBFLOW</text>
</svg>
